<svg width="24" height="24" viewBox="0 0 24 24" fill="none" xmlns="http://www.w3.org/2000/svg">
  <circle cx="12" cy="12" r="10" fill="#5f6362" stroke="#ffffff" stroke-width="2"/>
  <path d="M12 2C13.1 2 14 2.9 14 4C14 5.1 13.1 6 12 6C10.9 6 10 5.1 10 4C10 2.9 10.9 2 12 2ZM21 9V7L15 6.5V7.5C15 8.3 14.3 9 13.5 9H10.5C9.7 9 9 8.3 9 7.5V6.5L3 7V9L9 8.5V9.5C9 10.3 9.7 11 10.5 11H13.5C14.3 11 15 10.3 15 9.5V8.5L21 9ZM12 13.5C14.2 13.5 16 15.3 16 17.5V20H8V17.5C8 15.3 9.8 13.5 12 13.5Z" fill="#ffffff"/>
</svg>
