<?xml version="1.0" encoding="UTF-8" standalone="no"?>
<!-- Created with Inkscape (http://www.inkscape.org/) -->

<svg
   version="1.1"
   id="svg1"
   width="150"
   height="150"
   viewBox="0 0 150 150"
   sodipodi:docname="logo_2_options.svg"
   inkscape:version="1.4.2 (f4327f4, 2025-05-13)"
   xmlns:inkscape="http://www.inkscape.org/namespaces/inkscape"
   xmlns:sodipodi="http://sodipodi.sourceforge.net/DTD/sodipodi-0.dtd"
   xmlns="http://www.w3.org/2000/svg"
   xmlns:svg="http://www.w3.org/2000/svg">
  <defs
     id="defs1" />
  <sodipodi:namedview
     id="namedview1"
     pagecolor="#ffffff"
     bordercolor="#000000"
     borderopacity="0.25"
     inkscape:showpageshadow="2"
     inkscape:pageopacity="0.0"
     inkscape:pagecheckerboard="0"
     inkscape:deskcolor="#d1d1d1"
     inkscape:zoom="3.5880619"
     inkscape:cx="104.9313"
     inkscape:cy="94.619326"
     inkscape:window-width="1920"
     inkscape:window-height="1009"
     inkscape:window-x="-8"
     inkscape:window-y="-8"
     inkscape:window-maximized="1"
     inkscape:current-layer="g1">
    <inkscape:page
       x="0"
       y="0"
       inkscape:label="1"
       id="page1"
       width="150"
       height="150"
       margin="0"
       bleed="0" />
  </sodipodi:namedview>
  <g
     id="g1"
     inkscape:groupmode="layer"
     inkscape:label="1">
    <path
       id="path1"
       d="m 149.3734,75.239353 c 0,41.021797 -33.26386,74.285657 -74.285667,74.285657 -41.019863,0 -74.28371303,-33.26386 -74.28371303,-74.285657 0,-41.019863 33.26385003,-74.28371363 74.28371303,-74.28371363 41.021807,0 74.285667,33.26385063 74.285667,74.28371363 z"
       style="fill:#050200;fill-opacity:1;fill-rule:nonzero;stroke:#b88746;stroke-width:0.867582;stroke-linecap:butt;stroke-linejoin:miter;stroke-miterlimit:4;stroke-dasharray:none;stroke-opacity:1" />
    <path
       id="path2"
       d="m 31.539368,58.527988 c 0,-0.127879 1.271033,-1.398911 2.82301,-2.823011 1.544227,-1.42216 5.101568,-4.745058 7.885827,-7.370438 4.882625,-4.60943 6.52373,-5.812649 7.969141,-5.820399 0.341009,-0.0078 1.385349,0.302259 2.32506,0.680079 0.930024,0.379761 1.906549,0.689769 2.171993,0.689769 0.263506,0 3.253147,-2.557565 6.638045,-5.692521 3.382962,-3.125267 6.659359,-6.099407 7.279374,-6.607043 1.26522,-1.03659 2.81526,-1.755421 3.778221,-1.755421 1.203219,0 3.109767,1.612041 7.484755,6.34935 2.390936,2.588567 4.518365,4.77606 4.721808,4.859375 0.21313,0.07557 1.023026,-0.416574 1.801921,-1.104404 0.778896,-0.682017 1.830984,-1.460913 2.338622,-1.734106 0.848646,-0.461138 0.984275,-0.461138 1.838735,-0.05232 0.515388,0.242195 2.960576,2.346373 5.442577,4.677244 6.818243,6.388102 8.370223,7.7812 12.140693,10.859966 5.23721,4.283923 5.51621,4.927189 0.78664,1.817422 -4.5726,-3.005139 -8.0602,-5.835899 -16.091352,-13.062959 -1.476413,-1.333034 -2.830761,-2.414187 -3.01289,-2.414187 -0.559951,0 -2.482,1.55779 -2.989639,2.429687 l -0.484387,0.823459 0.999776,1.197405 c 0.544452,0.651018 2.974138,3.299648 5.396076,5.872713 2.421936,2.573066 4.260671,4.729559 4.088229,4.789623 -0.968774,0.319694 -5.729334,-4.130857 -15.258202,-14.28943 -7.372377,-7.862576 -8.401215,-8.815851 -9.484305,-8.815851 -1.437663,0 -3.398463,1.619793 -13.289654,10.943281 l -2.604066,2.460688 0.575452,0.809895 c 0.854458,1.203219 9.331238,9.422304 11.32304,10.982031 0.945523,0.740145 1.664355,1.406662 1.60429,1.466726 -0.249943,0.249944 -3.382961,-1.641105 -5.320511,-3.200832 -1.09859,-0.87771 -3.73947,-3.193081 -5.866899,-5.146132 -6.130407,-5.609207 -7.40919,-6.328036 -9.490118,-5.388326 -0.620016,0.271257 -2.98964,2.171994 -5.275948,4.214171 -4.22967,3.784034 -8.3179,7.130183 -10.641023,8.711223 -1.362096,0.931962 -1.604291,1.030777 -1.604291,0.643266 z"
       style="fill:#b88746;fill-opacity:1;fill-rule:nonzero;stroke:none;stroke-width:0.275628;stroke-linecap:butt;stroke-linejoin:miter;stroke-miterlimit:4;stroke-dasharray:none;stroke-opacity:1" />
    <text
       id="text2"
       xml:space="preserve"
       style="font-size:23.2506px;fill:#b88746;fill-opacity:1;stroke-width:1.93755"
       x="16.023424"
       y="101.22147"><tspan
         id="tspan2"
         style="font-variant:normal;font-weight:normal;font-size:12.956px;font-family:Aspira;writing-mode:lr-tb;fill:#b88746;fill-opacity:1;fill-rule:nonzero;stroke:none;stroke-width:1.93755"
         x="16.023424"
         dx="0 0 0 0 -0.75144225 -0.2332062 0 -0.129559 0 0 -0.40163288 0 0 0 -0.22025031"
         y="101.22147">RESTAURANT &amp; BAR</tspan></text>
    <text
       id="text3"
       xml:space="preserve"
       style="font-size:23.2506px;fill:#b88746;fill-opacity:1;stroke-width:1.93755"
       x="9.5571232"
       y="84.725021"><tspan
         id="tspan3"
         style="font-variant:normal;font-weight:700;font-size:27.7626px;font-family:'Heisei Mincho Std';writing-mode:lr-tb;fill:#b88746;fill-opacity:1;fill-rule:nonzero;stroke:none;stroke-width:1.93755"
         x="9.5571232"
         y="84.725021">VERANDA</tspan></text>
  </g>
</svg>
